<?xml version="1.0" encoding="UTF-8" standalone="no"?>
<!DOCTYPE svg PUBLIC "-//W3C//DTD SVG 1.1//EN" "http://www.w3.org/Graphics/SVG/1.1/DTD/svg11.dtd">
<svg width="100%" height="100%" viewBox="0 0 100 100" version="1.1" xmlns="http://www.w3.org/2000/svg" xmlns:xlink="http://www.w3.org/1999/xlink" xml:space="preserve" xmlns:serif="http://www.serif.com/" style="fill-rule:evenodd;clip-rule:evenodd;stroke-linejoin:round;stroke-miterlimit:2;">
    <g transform="matrix(1.7691,0,0,1.47712,-36.2334,-12.0783)">
        <path d="M48.744,8.177L52.433,8.467L56.059,9.33L59.56,10.754L62.876,12.712L65.949,15.172L68.729,18.091L71.167,21.42L73.221,25.102L74.856,29.073L76.044,33.266L76.765,37.608L77.007,42.027L76.765,46.445L76.044,50.788L74.856,54.98L73.221,58.952L71.167,62.633L68.729,65.962L65.949,68.882L62.876,71.341L59.56,73.3L56.059,74.723L52.433,75.587L48.744,75.876L45.055,75.587L41.429,74.723L37.928,73.3L34.613,71.341L31.539,68.882L28.759,65.962L26.322,62.633L24.268,58.952L22.633,54.98L21.444,50.788L20.723,46.445L20.481,42.027L20.723,37.608L21.444,33.266L22.633,29.073L24.268,25.102L26.322,21.42L28.759,18.091L31.539,15.172L34.613,12.712L37.928,10.754L41.429,9.33L45.055,8.467L48.744,8.177Z"/>
    </g>
</svg>
