<?xml version="1.0" encoding="UTF-8" standalone="no"?>
<!DOCTYPE svg PUBLIC "-//W3C//DTD SVG 1.1//EN" "http://www.w3.org/Graphics/SVG/1.1/DTD/svg11.dtd">
<svg width="100%" height="100%" viewBox="0 0 100 100" version="1.1" xmlns="http://www.w3.org/2000/svg" xmlns:xlink="http://www.w3.org/1999/xlink" xml:space="preserve" xmlns:serif="http://www.serif.com/" style="fill-rule:evenodd;clip-rule:evenodd;stroke-linejoin:round;stroke-miterlimit:2;">
    <path d="M50,100L7.406,53.146L3.087,46.479L1.021,39.531L-0,31.831L0.927,24.131L3.087,17.653L7.5,10.235L14.167,4.507L21.209,1.315L28.908,0L36.326,1.315L42.242,3.756L46.937,6.948L50,10.235L53.063,6.948L57.758,3.756L63.674,1.315L71.092,0L78.791,1.315L85.833,4.507L92.5,10.235L96.913,17.653L99.073,24.131L100,31.831L98.979,39.531L96.913,46.479L92.594,53.146L50,100Z"/>
</svg>
